<?xml version="1.0" encoding="utf-8"?>
<!-- Generator: Adobe Illustrator 16.0.0, SVG Export Plug-In . SVG Version: 6.00 Build 0)  -->
<!DOCTYPE svg PUBLIC "-//W3C//DTD SVG 1.1//EN" "http://www.w3.org/Graphics/SVG/1.1/DTD/svg11.dtd">
<svg version="1.1" id="Layer_1" xmlns="http://www.w3.org/2000/svg" xmlns:xlink="http://www.w3.org/1999/xlink" x="0px" y="0px"
	 width="241.244px" height="134.702px" viewBox="0 0 241.244 134.702" enable-background="new 0 0 241.244 134.702"
	 xml:space="preserve">
<path fill="#EC008C" d="M1.027,129.619v-17.577h3.909c0.794,0,1.486,0.055,2.078,0.166c0.592,0.11,1.168,0.364,1.73,0.76
	c0.562,0.396,1.018,0.927,1.371,1.593c0.351,0.664,0.527,1.377,0.527,2.137c0,0.744-0.157,1.406-0.472,1.983
	c-0.314,0.578-0.771,1.089-1.37,1.532c0.868,0.38,1.542,0.958,2.021,1.733c0.479,0.776,0.719,1.671,0.719,2.685
	c0,0.808-0.18,1.575-0.539,2.304s-0.861,1.312-1.505,1.747c-0.644,0.436-1.377,0.716-2.201,0.843
	c-0.42,0.063-1.206,0.095-2.359,0.095H1.027L1.027,129.619z M2.689,128.003h2.067H5.52c0.509,0,1-0.044,1.472-0.13
	c0.472-0.087,0.895-0.23,1.269-0.436c0.479-0.27,0.868-0.661,1.168-1.18c0.299-0.519,0.449-1.054,0.449-1.604
	c0-0.739-0.187-1.393-0.562-1.959s-0.876-0.966-1.505-1.203c-0.345-0.123-0.764-0.21-1.258-0.258
	c-0.494-0.047-0.974-0.071-1.438-0.071H2.689V128.003L2.689,128.003z M2.689,119.594h1.797h0.449c0.569,0,1.071-0.039,1.505-0.118
	s0.831-0.229,1.191-0.451c0.389-0.205,0.711-0.539,0.966-0.998s0.382-0.934,0.382-1.425c0-0.475-0.12-0.938-0.359-1.39
	c-0.24-0.451-0.528-0.784-0.865-0.998c-0.337-0.214-0.704-0.359-1.101-0.439c-0.396-0.079-0.85-0.118-1.359-0.118H2.689V119.594
	L2.689,119.594z M19.761,116.317c1.707,0,3.197,0.664,4.47,1.995c1.273,1.33,1.91,2.898,1.91,4.703c0,1.869-0.622,3.492-1.865,4.87
	c-1.243,1.377-2.748,2.066-4.515,2.066c-1.752,0-3.269-0.662-4.549-1.983c-1.28-1.322-1.92-2.91-1.92-4.763
	c0-1.9,0.629-3.523,1.887-4.87C16.437,116.99,17.964,116.317,19.761,116.317L19.761,116.317z M19.761,118.027
	c-1.363,0-2.505,0.503-3.426,1.508c-0.921,1.007-1.381,2.229-1.381,3.671c0,1.377,0.468,2.562,1.404,3.551
	c0.936,0.99,2.07,1.484,3.403,1.484c1.348,0,2.471-0.507,3.369-1.52c0.898-1.014,1.348-2.249,1.348-3.706
	c0-1.409-0.475-2.593-1.426-3.552C22.101,118.506,21.004,118.027,19.761,118.027L19.761,118.027z M15.987,114.987l3.235-2.992h1.438
	l3.279,2.992l-2.037,0.021l-1.961-1.73l-1.939,1.698L15.987,114.987L15.987,114.987z M22.996,112.374l0.719,0.713l4.627-2.519
	l-1.438-1.282L22.996,112.374L22.996,112.374z M29.51,129.619v-13.017h1.572v1.9c0.958-1.457,2.231-2.186,3.819-2.186
	c0.839,0,1.632,0.187,2.381,0.558c0.749,0.373,1.407,0.915,1.977,1.628c0.449,0.585,0.749,1.203,0.898,1.853
	s0.225,1.457,0.225,2.423v6.841H38.72v-6.841c0-0.871-0.06-1.517-0.18-1.937c-0.12-0.419-0.3-0.804-0.539-1.151
	c-0.779-1.109-1.842-1.663-3.19-1.663c-0.569,0-1.131,0.139-1.685,0.416c-0.554,0.277-0.996,0.661-1.326,1.151
	c-0.27,0.412-0.441,0.872-0.516,1.379s-0.113,1.108-0.113,1.805v6.841H29.51L29.51,129.619z M50.085,129.619v-17.577h2.561
	l6.065,14.934l6.065-14.934h2.561v17.577h-1.662v-15.63l-6.245,15.63h-1.438l-6.245-15.63v15.63H50.085L50.085,129.619z
	 M82.342,116.602v13.017h-1.708v-2.042c-0.404,0.791-0.996,1.385-1.774,1.781c-0.779,0.396-1.655,0.594-2.628,0.594
	c-0.854,0-1.651-0.183-2.393-0.547c-0.741-0.364-1.486-0.974-2.235-1.828c-0.359-0.381-0.599-0.899-0.719-1.557
	c-0.12-0.656-0.18-1.5-0.18-2.53v-6.888h1.797v6.888c0,0.618,0.038,1.152,0.112,1.604c0.075,0.451,0.232,0.866,0.472,1.247
	c0.344,0.602,0.82,1.069,1.427,1.401c0.606,0.332,1.269,0.498,1.988,0.498c1.363,0,2.441-0.538,3.235-1.615
	c0.299-0.396,0.509-0.862,0.629-1.4c0.12-0.539,0.179-1.117,0.179-1.735v-6.888H82.342L82.342,116.602z M79.197,114.274
	l-0.719,0.713l-4.627-2.518l1.438-1.283L79.197,114.274L79.197,114.274z M98.83,116.602v13.017h-1.572v-2.471
	c-0.449,0.903-1.104,1.596-1.965,2.079c-0.861,0.482-1.793,0.725-2.796,0.725c-0.944,0-1.895-0.238-2.853-0.713
	s-1.819-1.172-2.583-2.091c-0.27-0.316-0.524-0.815-0.764-1.496c-0.299-0.871-0.449-1.749-0.449-2.637
	c0-0.791,0.157-1.606,0.472-2.446c0.27-0.729,0.547-1.228,0.832-1.497c0.883-0.997,1.759-1.706,2.628-2.126
	c0.869-0.419,1.76-0.629,2.673-0.629c1.019,0,1.958,0.233,2.819,0.7c0.861,0.468,1.523,1.152,1.988,2.055v-2.47H98.83L98.83,116.602
	z M92.45,118.027c-1.348,0-2.508,0.5-3.481,1.496c-0.974,0.998-1.46,2.21-1.46,3.635s0.491,2.629,1.472,3.61
	s2.153,1.473,3.516,1.473c1.288,0,2.403-0.498,3.347-1.496s1.415-2.178,1.415-3.539c0-1.456-0.457-2.685-1.37-3.683
	C94.974,118.527,93.828,118.027,92.45,118.027L92.45,118.027z M114.374,129.619v-5.891l-6.963-11.687h2.201l5.758,9.89l5.743-9.89
	h2.247l-7.009,11.687v5.891H114.374L114.374,129.619z M137.375,123.728h-11.141c0,1.203,0.479,2.256,1.437,3.159
	c0.959,0.902,2.022,1.354,3.19,1.354c0.943,0,1.823-0.257,2.64-0.771c0.816-0.515,1.403-1.207,1.763-2.078h1.752
	c-0.435,1.314-1.213,2.402-2.336,3.267c-1.124,0.862-2.336,1.294-3.639,1.294c-1.797,0-3.325-0.665-4.583-1.995
	c-1.258-1.331-1.887-2.945-1.887-4.847c0-1.868,0.621-3.468,1.864-4.798c1.243-1.331,2.763-1.995,4.56-1.995
	c0.943,0,1.841,0.217,2.696,0.652c0.853,0.436,1.602,1.058,2.246,1.865c0.539,0.729,0.913,1.473,1.123,2.233
	C137.271,121.828,137.375,122.715,137.375,123.728L137.375,123.728z M126.235,122.16h9.479c-0.225-1.171-0.779-2.153-1.662-2.945
	c-0.883-0.791-1.901-1.188-3.055-1.188c-1.168,0-2.206,0.388-3.111,1.164C126.979,119.967,126.429,120.957,126.235,122.16
	L126.235,122.16z M127.268,114.987l3.234-2.992h1.438l3.279,2.992l-2.037,0.021l-1.962-1.73l-1.939,1.698L127.268,114.987
	L127.268,114.987z M152.516,116.602v13.017h-1.707v-2.042c-0.404,0.791-0.996,1.385-1.775,1.781
	c-0.778,0.396-1.654,0.594-2.628,0.594c-0.854,0-1.651-0.183-2.393-0.547c-0.741-0.364-1.486-0.974-2.234-1.828
	c-0.359-0.381-0.599-0.899-0.719-1.557c-0.12-0.656-0.18-1.5-0.18-2.53v-6.888h1.797v6.888c0,0.618,0.037,1.152,0.112,1.604
	c0.076,0.451,0.232,0.866,0.472,1.247c0.345,0.602,0.82,1.069,1.426,1.401c0.607,0.332,1.27,0.498,1.988,0.498
	c1.363,0,2.441-0.538,3.234-1.615c0.3-0.396,0.51-0.862,0.63-1.4c0.119-0.539,0.179-1.117,0.179-1.735v-6.888H152.516
	L152.516,116.602z M164.69,129.619v-15.962h-3.818v-1.615h9.254v1.615h-3.773v15.962H164.69L164.69,129.619z M171.744,129.619
	v-17.577h1.662v6.461c0.344-0.681,0.862-1.216,1.55-1.604c0.689-0.388,1.415-0.581,2.179-0.581c0.824,0,1.595,0.17,2.314,0.511
	c0.718,0.34,1.333,0.823,1.842,1.448c0.509,0.627,0.869,1.335,1.078,2.127c0.165,0.648,0.248,1.441,0.248,2.375v6.841h-1.663v-6.841
	c0-0.855-0.061-1.501-0.18-1.937s-0.299-0.835-0.539-1.199c-0.344-0.507-0.805-0.902-1.381-1.187
	c-0.577-0.286-1.179-0.429-1.808-0.429c-0.554,0-1.112,0.147-1.674,0.44c-0.562,0.293-1.007,0.668-1.337,1.127
	c-0.269,0.381-0.441,0.832-0.517,1.355c-0.075,0.521-0.112,1.132-0.112,1.828v6.841H171.744L171.744,129.619z M197.262,118.906
	v10.713h-1.708v-2.042c-0.404,0.791-0.996,1.385-1.774,1.781c-0.779,0.396-1.655,0.594-2.628,0.594
	c-0.853,0-1.651-0.183-2.392-0.547s-1.486-0.974-2.235-1.828c-0.359-0.381-0.599-0.899-0.718-1.557c-0.12-0.656-0.18-1.5-0.18-2.53
	v-6.888h1.797v6.888c0,0.618,0.037,1.152,0.112,1.604c0.075,0.451,0.232,0.866,0.472,1.247c0.344,0.602,0.82,1.069,1.426,1.401
	s1.27,0.498,1.988,0.498c1.363,0,2.44-0.538,3.234-1.615c0.3-0.396,0.509-0.862,0.629-1.4c0.12-0.539,0.18-1.117,0.18-1.735v-6.888
	h1.797v1.259c0.149-0.048,0.27-0.134,0.359-0.261c0.225-0.254,0.378-0.56,0.46-0.915c0.083-0.356,0.124-0.748,0.124-1.176h-1.707
	v-1.853h2.561c0,0.127,0,0.364,0,0.712c0,0.349,0,0.57,0,0.666c0,0.189,0,0.372,0,0.546s0,0.293,0,0.356
	c0,0.569-0.083,1.068-0.247,1.496c-0.165,0.428-0.443,0.783-0.832,1.069C197.74,118.708,197.5,118.843,197.262,118.906
	L197.262,118.906z M206.336,118.027c-1.362,0-2.505,0.503-3.426,1.508c-0.921,1.007-1.381,2.229-1.381,3.671
	c0,1.377,0.468,2.562,1.404,3.551c0.936,0.99,2.07,1.484,3.403,1.484c1.348,0,2.471-0.507,3.369-1.52
	c0.898-1.014,1.349-2.249,1.349-3.706c0-1.409-0.477-2.593-1.428-3.552C208.676,118.506,207.58,118.027,206.336,118.027
	L206.336,118.027z M211.121,118.668c0.225-0.063,0.382-0.166,0.472-0.31c0.225-0.253,0.379-0.558,0.461-0.913
	c0.082-0.356,0.123-0.749,0.123-1.176h-1.572v-1.949h2.65c0,0.127,0,0.27,0,0.429c0,0.158,0,0.332,0,0.522
	c0,0.427-0.022,0.871-0.067,1.33c0,0.523-0.104,1.025-0.314,1.508c-0.209,0.483-0.516,0.867-0.921,1.152l-0.269,0.189
	c0.688,1.109,1.033,2.298,1.033,3.563c0,1.869-0.622,3.492-1.865,4.87c-1.242,1.377-2.748,2.066-4.515,2.066
	c-1.752,0-3.269-0.662-4.549-1.983c-1.28-1.322-1.921-2.91-1.921-4.763c0-1.9,0.629-3.523,1.888-4.87
	c1.258-1.346,2.785-2.019,4.582-2.019c0.913,0,1.785,0.205,2.617,0.617C209.784,117.346,210.506,117.924,211.121,118.668
	L211.121,118.668z M215.187,129.619v-13.017h1.572v1.9c0.958-1.457,2.23-2.186,3.818-2.186c0.839,0,1.633,0.187,2.381,0.558
	c0.749,0.373,1.408,0.915,1.978,1.628c0.448,0.585,0.748,1.203,0.897,1.853s0.226,1.457,0.226,2.423v6.841h-1.663v-6.841
	c0-0.871-0.06-1.517-0.18-1.937c-0.12-0.419-0.299-0.804-0.538-1.151c-0.779-1.109-1.843-1.663-3.19-1.663
	c-0.569,0-1.13,0.139-1.685,0.416c-0.554,0.277-0.995,0.661-1.325,1.151c-0.27,0.412-0.441,0.872-0.517,1.379
	s-0.112,1.108-0.112,1.805v6.841H215.187L215.187,129.619z M241.244,116.602v11.164c0,1.235-0.061,2.098-0.18,2.589
	c-0.18,0.776-0.6,1.528-1.258,2.257c-0.569,0.665-1.288,1.18-2.157,1.544c-0.868,0.364-1.767,0.546-2.695,0.546
	c-1.377,0-2.643-0.438-3.796-1.318c-1.153-0.878-1.895-2.022-2.224-3.432h1.617c0.523,0.997,1.156,1.761,1.897,2.292
	c0.742,0.53,1.622,0.796,2.64,0.796c0.824,0,1.606-0.198,2.348-0.595c0.741-0.395,1.307-0.957,1.695-1.686
	c0.24-0.444,0.39-0.875,0.45-1.295c0.06-0.419,0.09-0.986,0.09-1.698v-0.713c-0.39,0.935-1.057,1.663-1.999,2.186
	c-0.854,0.475-1.79,0.713-2.809,0.713c-0.793,0-1.583-0.174-2.37-0.523c-0.786-0.348-1.479-0.823-2.077-1.425
	c-1.287-1.267-1.932-2.882-1.932-4.846c0-0.871,0.135-1.71,0.404-2.518c0.225-0.682,0.479-1.188,0.764-1.521
	c0.778-1.014,1.609-1.75,2.493-2.209c0.778-0.396,1.654-0.594,2.629-0.594c1.018,0,1.973,0.241,2.863,0.724
	c0.891,0.484,1.568,1.176,2.033,2.079v-2.518H241.244L241.244,116.602z M234.752,118.027c-1.281,0-2.367,0.487-3.261,1.461
	c-0.896,0.974-1.345,2.135-1.345,3.479c0,1.489,0.445,2.74,1.333,3.754c0.887,1.013,2.021,1.52,3.406,1.52
	c1.37,0,2.498-0.491,3.385-1.473c0.423-0.475,0.76-1.04,1.018-1.697c0.255-0.658,0.383-1.312,0.383-1.961
	c0-1.44-0.472-2.648-1.412-3.622C237.32,118.514,236.152,118.027,234.752,118.027z"/>
<path fill-rule="evenodd" clip-rule="evenodd" fill="#EC008C" d="M119.216,0.04c6.013-0.239,11.79,0.621,17.224,2.375
	c2.165,0.683,4.33,1.546,6.393,2.578c8.901,4.332,16.673,11.689,21.728,20.385c-4.917-1.718-10.246-1.785-11.998-1.751
	c-1.172-1.754-2.479-3.404-3.887-4.918C141.043,10.49,130.01,5.508,117.946,5.99c-2.924,0.103-5.743,0.551-8.459,1.237
	c-2.407,0.62-4.746,1.48-6.944,2.51c-10.761,5.085-18.838,14.818-21.726,26.502c6.395-3.263,13.098-5.119,20.247-5.257
	c7.668-0.138,15.78,1.682,24.374,5.772c12.581-7.87,25.238-5.466,37.78-3.055c16.433,3.093,25.096,2.334,39.943-5.023
	c-4.605,6.12-11.199,11.726-18.627,13.339c-17.123,2.821-25.851-3.368-40.943-3.404c-6.635,0-13.407,1.755-20.353,6.602
	l-0.479,0.343l-0.55-0.31c-6.122-3.437-12.619-6.08-19.871-7.047c-7.255-0.93-15.265-0.169-24.477,3.197l-4.4,1.823l-1.685,0.721
	l0.342-1.789v-0.03c0.519-3.232,1.304-6.363,2.413-9.351c1.063-3.026,2.433-5.88,4.053-8.597
	C86.904,10.287,101.853,0.729,119.216,0.04z"/>
<path fill-rule="evenodd" clip-rule="evenodd" fill="#EF58A0" d="M99.792,47.552c6.393,0.102,13.096,1.818,20.179,5.465
	c10.658-6.226,21.109-3.887,31.457-1.581c13.578,3.061,20.83,2.615,33.378-3.096c-4.022,4.953-12.684,10.007-17.845,10.831
	c-14.438,1.994-19.421-3.711-31.966-4.13c-5.536-0.168-11.209,1.104-17.087,4.919l-0.413,0.308l-0.447-0.271
	c-5.018-3.023-10.346-5.399-16.363-6.394c-6.016-0.965-12.683-0.554-20.455,1.991l-3.712,1.409l-1.408,0.549
	C81.331,50.576,90.578,47.447,99.792,47.552z"/>
<g>
	<path fill="#EC008C" d="M86.521,80.932c2.372-4.331,5.707-6.738,10.35-8.011c1.511-0.447,3.437-0.655,5.811-0.655
		c2.059,0,4.398,0.275,7.011,0.792v5.021c-0.998-0.857-2.167-1.514-3.472-1.957c-1.308-0.449-2.683-0.69-4.057-0.69
		c-1.546,0-2.818,0.204-3.85,0.582c-0.999,0.381-1.825,0.76-2.476,1.137c-0.652,0.377-1.408,0.929-2.236,1.613
		c-0.825,0.725-1.578,1.757-2.266,3.164c-1.237,2.477-1.309,6.288-0.344,8.904c1.1,3.095,3.404,5.57,6.464,6.74
		c1.89,0.719,3.815,1.096,5.775,1.096c1.614,0,3.334-0.307,5.152-0.929v-6.391c0-1.307-0.168-2.303-0.443-3.026
		c-0.277-0.687-0.83-1.269-1.615-1.755h6.736c-0.07,0.172-0.14,0.313-0.206,0.451c-0.036,0.139-0.104,0.308-0.141,0.513v2.063v8.835
		c0,0.895,0.104,1.55,0.346,1.993c-1.239,0.342-2.75,0.69-4.57,0.931c-9.079,1.202-20.56-0.416-23.068-10.864
		C84.667,87.427,84.976,83.713,86.521,80.932z"/>
	<path fill="#EC008C" d="M57.92,96.709V77.39c0-0.96-0.069-1.755-0.236-2.338c-0.17-0.582-0.379-1.031-0.658-1.374
		c-0.273-0.311-0.582-0.585-0.893-0.757l-0.928-0.55h6.397l17.29,22.001V77.044c0-2.749-0.893-4.299-2.681-4.673h8.424l-1.342,0.825
		c-0.31,0.171-0.62,0.553-0.826,1.028c-0.239,0.484-0.516,1.308-0.516,2.511v28.121l-4.711-5.773L60.95,78.388v17.977
		c0,1.174,0.168,2.031,0.513,2.646c0.31,0.588,0.927,1.172,1.823,1.753h-8.082l1.445-1.064c0.312-0.273,0.585-0.579,0.792-1.031
		C57.646,98.258,57.816,97.602,57.92,96.709z"/>
	<path fill="#EC008C" d="M0.305,78.972c0-2.784,1.033-4.882,3.061-6.325c2.063-1.443,4.538-2.199,7.428-2.199h1.132
		c1.031,0,2.234,0.104,3.643,0.309c1.41,0.172,2.44,0.447,3.025,0.758v4.88c-0.894-0.688-2.099-1.306-3.539-1.819
		c-1.444-0.521-2.858-0.793-4.163-0.793c-2.338,0-4.022,0.859-4.983,2.612l-0.208,0.449L5.463,77.39v0.446
		c0,0.927,0.479,1.788,1.408,2.646c0.933,0.827,2.165,1.587,3.681,2.271l4.912,2.51c1.443,0.657,2.82,1.58,4.061,2.817
		c1.272,1.203,1.892,2.614,1.892,4.227c0,1.895-0.551,3.544-1.652,4.953c-1.099,1.408-2.611,2.477-4.537,3.268
		c-1.924,0.788-4.058,1.169-6.396,1.169c-2.543,0-5.158-0.443-7.836-1.305L0,94.786c1.338,1.134,2.85,2.028,4.498,2.612
		c1.651,0.618,3.2,0.928,4.678,0.928c1.618,0,3.061-0.31,4.33-0.964c1.276-0.652,1.89-1.377,2.131-1.993
		c0.483-1.168,0.417-2.475-0.241-3.609c-0.309-0.548-0.755-1.065-1.307-1.479c-0.512-0.41-0.997-0.755-1.409-1.032
		c-0.443-0.238-0.89-0.548-1.44-0.823l-4.982-2.505c-1.449-0.622-2.753-1.55-3.922-2.789C1.165,81.927,0.479,80.52,0.305,78.972z"/>
	<path fill-rule="evenodd" clip-rule="evenodd" fill="#EC008C" d="M39.257,101.625c8.762-0.068,15.844-6.668,15.844-14.783
		c0-8.113-7.082-14.71-15.844-14.78v2.268c6.085,0,11.032,5.503,11.032,12.305c0,6.774-4.947,12.313-11.032,12.313V101.625
		L39.257,101.625z M39.117,101.625c-8.871,0-16.02-6.602-16.02-14.783c0-8.179,7.148-14.78,16.02-14.78c0.032,0,0.102,0,0.141,0
		v2.268c-6.087,0-11.037,5.503-11.037,12.305c0,6.774,4.95,12.313,11.037,12.313v2.679
		C39.218,101.625,39.149,101.625,39.117,101.625L39.117,101.625z"/>
	<path fill="#EC008C" d="M214.027,80.932c2.369-4.331,5.739-6.738,10.348-8.011c1.512-0.447,3.472-0.655,5.808-0.655
		c2.064,0,4.401,0.275,7.017,0.792v5.021c-1.001-0.857-2.169-1.514-3.478-1.957c-1.303-0.449-2.681-0.69-4.057-0.69
		c-1.547,0-2.816,0.204-3.814,0.582c-1.028,0.381-1.854,0.76-2.508,1.137c-0.655,0.377-1.373,0.929-2.237,1.613
		c-0.823,0.725-1.58,1.757-2.268,3.164c-1.238,2.477-1.306,6.288-0.343,8.904c1.136,3.095,3.403,5.57,6.462,6.74
		c1.892,0.719,3.818,1.096,5.774,1.096c1.65,0,3.338-0.307,5.156-0.929v-6.391c0-1.307-0.131-2.303-0.445-3.026
		c-0.273-0.687-0.824-1.269-1.617-1.755h6.737c-0.063,0.172-0.135,0.313-0.202,0.451c-0.035,0.139-0.107,0.308-0.137,0.513v2.063
		v8.835c0,0.895,0.102,1.55,0.339,1.993c-1.235,0.342-2.748,0.69-4.571,0.931c-9.073,1.202-20.52-0.416-23.063-10.864
		C212.168,87.427,212.48,83.713,214.027,80.932z"/>
	<path fill="#EC008C" d="M185.424,96.709V77.39c0-0.96-0.067-1.755-0.239-2.338c-0.174-0.582-0.378-1.031-0.652-1.374
		c-0.276-0.311-0.549-0.585-0.894-0.757l-0.929-0.55h6.431l17.285,22.001V77.044c0-2.749-0.892-4.299-2.679-4.673h8.387
		l-1.338,0.825c-0.31,0.171-0.587,0.553-0.831,1.028c-0.234,0.484-0.51,1.308-0.51,2.511v28.121l-4.71-5.773l-16.295-20.695v17.977
		c0,1.174,0.171,2.031,0.519,2.646c0.307,0.588,0.925,1.172,1.821,1.753h-8.08l1.445-1.064c0.305-0.273,0.583-0.579,0.789-1.031
		C185.149,98.258,185.323,97.602,185.424,96.709z"/>
	<path fill="#EC008C" d="M123.305,96.641V77.666c0-1.203-0.102-2.2-0.272-2.988c-0.208-0.758-0.653-1.451-1.41-2.066h8.042
		c-1.303,0.688-1.992,2.235-1.992,4.68v6.494h15.64v-6.808c0-0.964-0.207-1.854-0.615-2.682c-0.416-0.822-0.997-1.374-1.826-1.685
		h8.836l-0.965,1.034c-0.273,0.241-0.511,0.65-0.754,1.167c-0.203,0.515-0.309,1.239-0.309,2.165v19.664
		c0,1.065,0.105,1.891,0.411,2.442c0.243,0.585,0.795,1.099,1.617,1.58h-8.494c1.413-0.548,2.099-1.786,2.099-3.712v-9.83h-15.64
		v9.52c0,0.827,0.173,1.582,0.517,2.236c0.342,0.687,0.826,1.269,1.476,1.786h-8.389c0.62-0.312,1.135-0.859,1.515-1.58
		C123.133,98.291,123.305,97.501,123.305,96.641z"/>
	<path fill-rule="evenodd" clip-rule="evenodd" fill="#EC008C" d="M166.858,101.763c8.771-0.103,15.852-6.669,15.852-14.782
		c0-8.146-7.081-14.715-15.852-14.816v2.306c6.088,0,11.042,5.502,11.042,12.269c0,6.809-4.953,12.31-11.042,12.31V101.763
		L166.858,101.763z M166.688,101.763c-8.831,0-16.013-6.635-16.013-14.782c0-8.183,7.183-14.816,16.013-14.816
		c0.035,0,0.106,0,0.17,0v2.306c-6.111,0-11.065,5.502-11.065,12.269c0,6.809,4.954,12.31,11.065,12.31v2.715
		C166.794,101.763,166.723,101.763,166.688,101.763L166.688,101.763z"/>
</g>
</svg>
