<?xml version="1.0" encoding="iso-8859-1"?>
<!-- Generator: Adobe Illustrator 16.0.0, SVG Export Plug-In . SVG Version: 6.00 Build 0)  -->
<!DOCTYPE svg PUBLIC "-//W3C//DTD SVG 1.1//EN" "http://www.w3.org/Graphics/SVG/1.1/DTD/svg11.dtd">
<svg version="1.1" id="Layer_1" xmlns="http://www.w3.org/2000/svg" xmlns:xlink="http://www.w3.org/1999/xlink" x="0px" y="0px"
	 width="39.724px" height="39.724px" viewBox="0 0 39.724 39.724" style="enable-background:new 0 0 39.724 39.724;"
	 xml:space="preserve">
<circle style="fill:none;stroke:#999999;stroke-miterlimit:10;" cx="19.861" cy="19.862" r="19.362"/>
<g>
	<path style="fill:#999999;" d="M20.502,26.453c-0.047-1.199-0.592-2.365-1.967-2.686c-1.439-0.338-2.831,0.574-2.831,1.871
		c0,1.295,0.72,2.063,1.824,2.063c1.103,0,1.871-0.912,1.487-1.92c-0.385-1.006-1.679-0.959-1.872-0.143
		c-0.192,0.814,0.576,0.863,0.816,0.527c0.24-0.336-0.144-0.719-0.144-0.719s0.959-0.145,0.959,0.719
		c0,1.104-1.055,1.199-1.534,1.152c-0.48-0.049-1.201-0.529-1.152-1.775c0.036-0.959,1.486-1.871,2.686-1.297
		c1.201,0.576,1.728,1.873,1.249,3.551c-0.479,1.68-1.919,2.59-1.919,2.59C19.927,29.621,20.551,27.652,20.502,26.453"/>
	<path style="fill:#999999;" d="M20.647,18.921c0,0-0.395,1.207-0.912,0.623c-0.368-0.415,0.336-0.814,0.336-0.814
		s-0.641-0.049-0.896-0.4s-0.512-1.088-0.831-1.215c0,0,1.408-0.256,2.847,1.887c0,0,0-2.494-2.591-3.52
		c0,0,0.033-0.447,0.831-0.095c0,0-0.095-0.417-0.447-0.673c-0.352-0.254-0.926-1.438-0.575-2.046c0,0,0.129,0.575,0.768,0.991
		c0.64,0.416,0.704,1.023,0.575,1.439c0,0,0.416-0.992,1.183-0.64c0,0-0.447,0.511-0.32,1.439c0.128,0.927,0.896,2.047,0.896,2.047
		s-0.095-1.6,0.448-2.111c0,0,0.096,0.224,0.32,0.736c0.223,0.512,0.096,1.087-0.288,1.407c0,0,0.959-0.353,1.119,0.255
		c0.161,0.608-0.863,0.801-1.088,0.193c0,0-0.096,0.319,0.033,0.96c0.127,0.639,0.574,1.822,0.223,4.333
		C22.278,23.718,22.613,21.175,20.647,18.921 M20.599,28.949c3.502-5.086,1.823-9.98,1.823-9.98s0.912,0.287,0.96-0.576
		c0.057-1.007-0.816-0.72-0.816-0.72c0.289-1.104-0.047-0.96-0.24-1.871c-0.191-0.912,0.48-1.199,0.48-1.199
		c-1.488,0.336-1.488,2.351-1.488,2.351c-1.007-1.534-0.144-2.494-0.144-2.494c-0.575-0.72-1.199-0.049-1.199-0.049
		c-0.048-0.862-0.816-1.151-1.104-1.486c-0.289-0.336-0.433-0.863,0.24-1.295c0.67-0.433,1.391,0.048,1.391,0.048
		c-0.335-0.72-1.918-0.769-2.351,0.719c-0.433,1.487,0.72,2.591,0.72,2.591c-1.008-0.048-0.672,0.768-0.672,0.768
		c1.776,0.191,2.399,2.063,2.399,2.063s-0.591-0.512-1.535-0.864c-0.972-0.362-1.679,0.385-1.679,0.385
		c0.671-0.192,0.959-0.049,1.295,0.767c0.336,0.816,0.815,0.768,0.815,0.768c-0.24,0.48-0.145,1.151,0.527,1.152
		c0.465,0,0.672-0.528,0.672-0.528s2.415,2.602,0.527,7.533c-1.486,3.887-5.374,4.75-5.374,4.75S18.736,31.652,20.599,28.949"/>
	<path style="fill:#999999;" d="M26.02,21.223c0.289-3.119-0.144-7.868-3.07-10.603c-2.928-2.735-6.143-1.823-7.437,1.104
		c-1.296,2.927-0.336,6.621,1.679,8.684c2.016,2.063,3.358,2.112,3.358,2.112c-4.654-2.16-4.798-6.381-4.99-8.252
		c-0.192-1.871,1.104-4.798,3.647-4.847c2.542-0.047,4.701,2.209,5.42,4.942c0.72,2.735,1.535,8.397-1.678,13.338
		c-3.216,4.943-8.589,4.605-8.589,4.605s2.436,0.904,5.998-1.391C24.005,28.564,25.732,24.341,26.02,21.223"/>
	<path style="fill:#999999;" d="M20.838,31.06c3.263-2.496,5.047-1.215,5.149-0.129c0.095,1.023-0.575,1.279-1.216,1.279
		c-0.639,0-1.076-0.287-0.991-0.928c0.064-0.479,0.705-0.447,0.705-0.447c-0.353,0.031-0.448,0.672,0.063,0.703
		c0.352,0.021,0.463-0.336,0.367-0.623c-0.096-0.289-0.527-0.527-1.103-0.191c-0.575,0.336-0.575,1.822,0.959,1.822
		c1.536,0,1.727-1.295,1.536-1.967c-0.192-0.672-0.815-1.488-2.495-1.199C22.133,29.667,20.838,31.06,20.838,31.06"/>
</g>
</svg>
