<?xml version="1.0" encoding="utf-8"?>
<!-- Generator: Adobe Illustrator 16.0.0, SVG Export Plug-In . SVG Version: 6.00 Build 0)  -->
<!DOCTYPE svg PUBLIC "-//W3C//DTD SVG 1.1//EN" "http://www.w3.org/Graphics/SVG/1.1/DTD/svg11.dtd">
<svg version="1.1" id="Layer_1" xmlns="http://www.w3.org/2000/svg" xmlns:xlink="http://www.w3.org/1999/xlink" x="0px" y="0px"
	 width="241.244px" height="134.703px" viewBox="0 0 241.244 134.703" enable-background="new 0 0 241.244 134.703"
	 xml:space="preserve">
<path fill="#FFFFFF" d="M1.027,129.619v-17.576h3.909c0.794,0,1.486,0.055,2.078,0.166c0.592,0.109,1.168,0.363,1.73,0.76
	s1.018,0.927,1.371,1.593c0.351,0.664,0.527,1.377,0.527,2.138c0,0.743-0.157,1.405-0.472,1.982
	c-0.314,0.578-0.771,1.089-1.37,1.531c0.868,0.381,1.542,0.959,2.021,1.734s0.719,1.67,0.719,2.684c0,0.809-0.18,1.576-0.539,2.305
	s-0.861,1.313-1.505,1.747c-0.644,0.437-1.377,0.716-2.201,0.843c-0.42,0.063-1.206,0.096-2.359,0.096H1.027V129.619z
	 M2.689,128.003h2.067H5.52c0.509,0,1-0.045,1.472-0.131c0.472-0.086,0.895-0.229,1.269-0.436c0.479-0.27,0.868-0.661,1.168-1.18
	c0.299-0.52,0.449-1.055,0.449-1.604c0-0.739-0.187-1.394-0.562-1.959s-0.876-0.966-1.505-1.202
	c-0.345-0.123-0.764-0.211-1.258-0.259c-0.494-0.047-0.974-0.071-1.438-0.071H2.689V128.003L2.689,128.003z M2.689,119.593h1.797
	h0.449c0.569,0,1.071-0.038,1.505-0.117s0.831-0.229,1.191-0.451c0.389-0.205,0.711-0.539,0.966-0.998
	c0.255-0.459,0.382-0.934,0.382-1.425c0-0.476-0.12-0.938-0.359-1.39c-0.24-0.451-0.528-0.785-0.865-0.998
	c-0.337-0.215-0.704-0.359-1.101-0.439c-0.396-0.079-0.85-0.117-1.359-0.117H2.689V119.593L2.689,119.593z M19.761,116.317
	c1.707,0,3.197,0.664,4.47,1.995c1.273,1.33,1.91,2.898,1.91,4.703c0,1.869-0.622,3.492-1.865,4.869
	c-1.243,1.378-2.748,2.066-4.515,2.066c-1.752,0-3.269-0.662-4.549-1.982c-1.28-1.322-1.92-2.91-1.92-4.764
	c0-1.899,0.629-3.522,1.887-4.869C16.437,116.99,17.964,116.317,19.761,116.317L19.761,116.317z M19.761,118.027
	c-1.363,0-2.505,0.504-3.426,1.508c-0.921,1.008-1.381,2.229-1.381,3.672c0,1.377,0.468,2.562,1.404,3.551
	c0.936,0.99,2.07,1.484,3.403,1.484c1.348,0,2.471-0.508,3.369-1.521c0.898-1.015,1.348-2.249,1.348-3.706
	c0-1.409-0.475-2.594-1.426-3.553C22.101,118.505,21.004,118.027,19.761,118.027L19.761,118.027z M15.987,114.987l3.235-2.991h1.438
	l3.279,2.991l-2.037,0.021l-1.961-1.729l-1.939,1.698L15.987,114.987L15.987,114.987z M22.996,112.375l0.719,0.713l4.627-2.52
	l-1.438-1.281L22.996,112.375L22.996,112.375z M29.51,129.619v-13.017h1.572v1.899c0.958-1.457,2.231-2.186,3.819-2.186
	c0.839,0,1.632,0.188,2.381,0.559c0.749,0.373,1.407,0.914,1.977,1.627c0.449,0.586,0.749,1.203,0.898,1.854
	c0.149,0.65,0.225,1.457,0.225,2.423v6.841H38.72v-6.841c0-0.87-0.06-1.517-0.18-1.937s-0.3-0.805-0.539-1.151
	c-0.779-1.108-1.842-1.663-3.19-1.663c-0.569,0-1.131,0.139-1.685,0.416s-0.996,0.661-1.326,1.15
	c-0.27,0.412-0.441,0.873-0.516,1.38c-0.075,0.507-0.113,1.108-0.113,1.805v6.841H29.51L29.51,129.619z M50.085,129.619v-17.576
	h2.561l6.065,14.934l6.065-14.934h2.561v17.576h-1.662V113.99l-6.245,15.629h-1.438l-6.245-15.629v15.629H50.085L50.085,129.619z
	 M82.342,116.602v13.017h-1.708v-2.041c-0.404,0.791-0.996,1.385-1.774,1.78c-0.779,0.396-1.655,0.595-2.628,0.595
	c-0.854,0-1.651-0.184-2.393-0.547c-0.741-0.365-1.486-0.975-2.235-1.828c-0.359-0.382-0.599-0.9-0.719-1.558
	c-0.12-0.655-0.18-1.5-0.18-2.53v-6.888h1.797v6.888c0,0.618,0.038,1.152,0.112,1.604c0.075,0.451,0.232,0.867,0.472,1.248
	c0.344,0.602,0.82,1.068,1.427,1.4c0.606,0.332,1.269,0.498,1.988,0.498c1.363,0,2.441-0.537,3.235-1.615
	c0.299-0.396,0.509-0.861,0.629-1.399c0.12-0.539,0.179-1.117,0.179-1.735v-6.888H82.342L82.342,116.602z M79.197,114.274
	l-0.719,0.713l-4.627-2.519l1.438-1.282L79.197,114.274L79.197,114.274z M98.83,116.602v13.017h-1.572v-2.471
	c-0.449,0.902-1.104,1.596-1.965,2.079c-0.861,0.481-1.793,0.726-2.796,0.726c-0.944,0-1.895-0.238-2.853-0.713
	c-0.958-0.476-1.819-1.173-2.583-2.092c-0.27-0.316-0.524-0.814-0.764-1.496c-0.299-0.871-0.449-1.749-0.449-2.637
	c0-0.791,0.157-1.605,0.472-2.446c0.27-0.729,0.547-1.228,0.832-1.497c0.883-0.996,1.759-1.705,2.628-2.126
	c0.869-0.419,1.76-0.629,2.673-0.629c1.019,0,1.958,0.233,2.819,0.7c0.861,0.468,1.523,1.152,1.988,2.055v-2.47H98.83L98.83,116.602
	z M92.45,118.027c-1.348,0-2.508,0.5-3.481,1.496c-0.974,0.998-1.46,2.21-1.46,3.635c0,1.426,0.491,2.629,1.472,3.61
	s2.153,1.474,3.516,1.474c1.288,0,2.403-0.498,3.347-1.496c0.944-0.998,1.415-2.179,1.415-3.539c0-1.457-0.457-2.686-1.37-3.684
	C94.974,118.527,93.828,118.027,92.45,118.027L92.45,118.027z M114.374,129.619v-5.891l-6.963-11.688h2.201l5.758,9.891l5.743-9.891
	h2.248l-7.009,11.688v5.891H114.374L114.374,129.619z M137.375,123.728h-11.142c0,1.203,0.479,2.256,1.438,3.158
	c0.959,0.902,2.021,1.355,3.189,1.355c0.943,0,1.824-0.258,2.641-0.771c0.816-0.516,1.402-1.207,1.764-2.078h1.752
	c-0.436,1.314-1.213,2.402-2.336,3.268c-1.125,0.861-2.336,1.293-3.64,1.293c-1.797,0-3.325-0.664-4.583-1.994
	c-1.258-1.332-1.887-2.945-1.887-4.848c0-1.867,0.621-3.468,1.863-4.798c1.244-1.331,2.764-1.995,4.561-1.995
	c0.943,0,1.841,0.217,2.695,0.652c0.854,0.436,1.603,1.058,2.246,1.865c0.539,0.729,0.914,1.473,1.123,2.232
	C137.271,121.828,137.375,122.714,137.375,123.728L137.375,123.728z M126.235,122.16h9.479c-0.225-1.17-0.779-2.152-1.662-2.945
	c-0.883-0.791-1.9-1.188-3.055-1.188c-1.168,0-2.206,0.389-3.111,1.164C126.979,119.966,126.429,120.957,126.235,122.16
	L126.235,122.16z M127.269,114.987l3.233-2.991h1.438l3.279,2.991l-2.037,0.021l-1.963-1.729l-1.939,1.698L127.269,114.987
	L127.269,114.987z M152.517,116.602v13.017h-1.707v-2.041c-0.404,0.791-0.996,1.385-1.775,1.78
	c-0.778,0.396-1.654,0.595-2.629,0.595c-0.854,0-1.65-0.184-2.393-0.547c-0.74-0.365-1.486-0.975-2.234-1.828
	c-0.358-0.382-0.598-0.9-0.719-1.558c-0.119-0.655-0.18-1.5-0.18-2.53v-6.888h1.797v6.888c0,0.618,0.037,1.152,0.112,1.604
	c0.076,0.451,0.231,0.867,0.472,1.248c0.346,0.602,0.82,1.068,1.426,1.4c0.607,0.332,1.271,0.498,1.988,0.498
	c1.363,0,2.441-0.537,3.234-1.615c0.3-0.396,0.51-0.861,0.63-1.399c0.119-0.539,0.179-1.117,0.179-1.735v-6.888H152.517
	L152.517,116.602z M164.69,129.619v-15.961h-3.818v-1.615h9.254v1.615h-3.773v15.961H164.69L164.69,129.619z M171.744,129.619
	v-17.576h1.661v6.461c0.345-0.682,0.863-1.217,1.551-1.604c0.689-0.388,1.415-0.581,2.18-0.581c0.823,0,1.594,0.17,2.313,0.512
	c0.718,0.34,1.333,0.822,1.842,1.447c0.509,0.627,0.869,1.335,1.078,2.127c0.165,0.648,0.248,1.441,0.248,2.375v6.842h-1.663v-6.842
	c0-0.855-0.061-1.501-0.18-1.938c-0.119-0.436-0.299-0.834-0.539-1.198c-0.344-0.507-0.805-0.901-1.381-1.187
	c-0.578-0.287-1.18-0.43-1.809-0.43c-0.554,0-1.111,0.146-1.674,0.439s-1.007,0.668-1.337,1.127
	c-0.269,0.382-0.44,0.832-0.517,1.355c-0.076,0.521-0.112,1.133-0.112,1.828v6.842H171.744L171.744,129.619z M197.263,118.906
	v10.713h-1.709v-2.041c-0.404,0.791-0.996,1.385-1.773,1.78c-0.779,0.396-1.655,0.595-2.629,0.595c-0.853,0-1.65-0.184-2.392-0.547
	c-0.741-0.365-1.485-0.975-2.235-1.828c-0.358-0.382-0.599-0.9-0.717-1.558c-0.121-0.655-0.181-1.5-0.181-2.53v-6.888h1.797v6.888
	c0,0.618,0.037,1.152,0.112,1.604c0.074,0.451,0.232,0.867,0.472,1.248c0.345,0.602,0.82,1.068,1.427,1.4
	c0.605,0.332,1.27,0.498,1.987,0.498c1.363,0,2.44-0.537,3.233-1.615c0.301-0.396,0.51-0.861,0.63-1.399
	c0.12-0.539,0.18-1.117,0.18-1.735v-6.888h1.798v1.259c0.148-0.048,0.27-0.134,0.358-0.261c0.226-0.254,0.378-0.56,0.46-0.915
	c0.083-0.355,0.124-0.748,0.124-1.176h-1.707v-1.854h2.562c0,0.127,0,0.364,0,0.713c0,0.348,0,0.569,0,0.666
	c0,0.188,0,0.371,0,0.545s0,0.293,0,0.356c0,0.569-0.084,1.067-0.248,1.496c-0.164,0.428-0.442,0.782-0.832,1.069
	C197.74,118.708,197.5,118.843,197.263,118.906L197.263,118.906z M206.336,118.027c-1.362,0-2.505,0.504-3.426,1.508
	c-0.921,1.008-1.382,2.229-1.382,3.672c0,1.377,0.469,2.562,1.404,3.551c0.937,0.99,2.07,1.484,3.403,1.484
	c1.349,0,2.472-0.508,3.369-1.521c0.897-1.015,1.349-2.249,1.349-3.706c0-1.409-0.477-2.594-1.428-3.553
	C208.676,118.505,207.58,118.027,206.336,118.027L206.336,118.027z M211.121,118.667c0.226-0.063,0.382-0.166,0.472-0.31
	c0.225-0.253,0.379-0.558,0.461-0.913s0.123-0.749,0.123-1.176h-1.572v-1.949h2.65c0,0.127,0,0.27,0,0.43c0,0.158,0,0.332,0,0.521
	c0,0.428-0.021,0.871-0.066,1.33c0,0.523-0.104,1.025-0.314,1.508c-0.209,0.482-0.516,0.867-0.921,1.152l-0.269,0.189
	c0.688,1.108,1.032,2.297,1.032,3.563c0,1.869-0.622,3.492-1.864,4.869s-2.748,2.066-4.516,2.066c-1.752,0-3.27-0.662-4.549-1.982
	c-1.28-1.322-1.921-2.91-1.921-4.764c0-1.899,0.629-3.522,1.888-4.869c1.258-1.347,2.785-2.02,4.582-2.02
	c0.913,0,1.785,0.205,2.617,0.617C209.784,117.346,210.506,117.923,211.121,118.667L211.121,118.667z M215.187,129.619v-13.017
	h1.572v1.899c0.958-1.457,2.23-2.186,3.818-2.186c0.839,0,1.633,0.188,2.381,0.559c0.749,0.373,1.408,0.914,1.979,1.627
	c0.447,0.586,0.748,1.203,0.896,1.854s0.227,1.457,0.227,2.423v6.841h-1.664v-6.841c0-0.87-0.06-1.517-0.18-1.937
	c-0.119-0.42-0.299-0.805-0.537-1.151c-0.779-1.108-1.844-1.663-3.191-1.663c-0.568,0-1.129,0.139-1.684,0.416
	s-0.996,0.661-1.326,1.15c-0.27,0.412-0.44,0.873-0.517,1.38c-0.075,0.507-0.112,1.108-0.112,1.805v6.841H215.187L215.187,129.619z
	 M241.244,116.602v11.164c0,1.235-0.062,2.099-0.181,2.589c-0.18,0.775-0.6,1.527-1.258,2.257c-0.568,0.665-1.287,1.181-2.156,1.544
	c-0.868,0.364-1.768,0.547-2.695,0.547c-1.377,0-2.643-0.438-3.796-1.318c-1.153-0.879-1.896-2.022-2.224-3.432h1.616
	c0.523,0.996,1.156,1.76,1.897,2.291c0.742,0.53,1.621,0.797,2.64,0.797c0.824,0,1.606-0.199,2.349-0.596
	c0.74-0.395,1.307-0.957,1.694-1.686c0.24-0.444,0.39-0.875,0.45-1.295s0.09-0.986,0.09-1.698v-0.713
	c-0.39,0.935-1.057,1.663-1.999,2.187c-0.854,0.475-1.79,0.713-2.81,0.713c-0.793,0-1.582-0.175-2.369-0.523
	c-0.786-0.348-1.479-0.823-2.077-1.426c-1.287-1.266-1.933-2.881-1.933-4.846c0-0.871,0.136-1.709,0.404-2.518
	c0.225-0.682,0.479-1.188,0.764-1.521c0.779-1.014,1.609-1.75,2.494-2.209c0.777-0.396,1.653-0.594,2.629-0.594
	c1.018,0,1.973,0.241,2.863,0.725s1.567,1.176,2.032,2.078v-2.518L241.244,116.602L241.244,116.602z M234.752,118.027
	c-1.28,0-2.367,0.487-3.261,1.461c-0.896,0.975-1.346,2.135-1.346,3.479c0,1.49,0.445,2.74,1.334,3.755
	c0.887,1.013,2.021,1.521,3.405,1.521c1.37,0,2.498-0.492,3.386-1.474c0.422-0.476,0.76-1.04,1.018-1.697
	c0.255-0.657,0.383-1.312,0.383-1.961c0-1.44-0.472-2.647-1.412-3.622C237.319,118.514,236.151,118.027,234.752,118.027z"/>
<path fill="#FFFFFF" d="M119.216,0.04c6.014-0.239,11.79,0.621,17.225,2.375c2.164,0.683,4.33,1.546,6.393,2.578
	c8.9,4.332,16.673,11.689,21.729,20.385c-4.918-1.718-10.246-1.785-11.998-1.751c-1.172-1.754-2.479-3.404-3.888-4.918
	c-7.633-8.219-18.666-13.201-30.73-12.719c-2.924,0.103-5.743,0.551-8.459,1.237c-2.407,0.62-4.746,1.48-6.944,2.51
	c-10.761,5.085-18.838,14.818-21.726,26.502c6.395-3.263,13.098-5.119,20.247-5.257c7.668-0.138,15.78,1.682,24.375,5.772
	c12.58-7.87,25.237-5.466,37.779-3.055c16.434,3.093,25.096,2.334,39.943-5.023c-4.605,6.12-11.199,11.726-18.627,13.339
	c-17.123,2.821-25.852-3.368-40.943-3.404c-6.635,0-13.406,1.755-20.354,6.602l-0.479,0.343l-0.55-0.31
	c-6.122-3.437-12.619-6.08-19.871-7.047c-7.255-0.93-15.265-0.169-24.477,3.197l-4.4,1.823l-1.685,0.721l0.342-1.789v-0.03
	c0.519-3.232,1.304-6.363,2.413-9.351c1.063-3.026,2.433-5.88,4.053-8.597C86.904,10.287,101.853,0.729,119.216,0.04z"/>
<path fill="#FFFFFF" d="M99.792,47.552c6.393,0.102,13.096,1.818,20.179,5.465c10.658-6.226,21.109-3.887,31.458-1.581
	c13.577,3.061,20.829,2.615,33.377-3.096c-4.021,4.953-12.684,10.007-17.845,10.831c-14.438,1.994-19.421-3.711-31.966-4.13
	c-5.536-0.168-11.209,1.104-17.087,4.919l-0.413,0.308l-0.447-0.271c-5.018-3.023-10.346-5.399-16.363-6.394
	c-6.016-0.965-12.683-0.554-20.455,1.991l-3.712,1.409l-1.408,0.549C81.331,50.576,90.578,47.447,99.792,47.552z"/>
<g>
	<path fill="#FFFFFF" d="M86.521,80.932c2.372-4.331,5.707-6.738,10.35-8.011c1.511-0.447,3.437-0.655,5.811-0.655
		c2.059,0,4.398,0.274,7.011,0.792v5.021c-0.998-0.857-2.167-1.515-3.472-1.957c-1.308-0.449-2.683-0.69-4.057-0.69
		c-1.546,0-2.818,0.204-3.85,0.582c-0.999,0.381-1.825,0.76-2.476,1.137c-0.652,0.377-1.408,0.929-2.236,1.613
		c-0.825,0.726-1.578,1.757-2.266,3.163c-1.237,2.478-1.309,6.289-0.344,8.904c1.1,3.096,3.404,5.57,6.464,6.74
		c1.89,0.719,3.815,1.096,5.775,1.096c1.614,0,3.334-0.307,5.152-0.928v-6.392c0-1.308-0.168-2.304-0.443-3.026
		c-0.277-0.688-0.83-1.27-1.615-1.755h6.736c-0.07,0.173-0.14,0.313-0.206,0.451c-0.036,0.14-0.104,0.308-0.141,0.513v2.063v8.836
		c0,0.895,0.104,1.55,0.346,1.992c-1.239,0.343-2.75,0.69-4.57,0.932c-9.079,1.202-20.56-0.416-23.068-10.863
		C84.667,87.427,84.976,83.712,86.521,80.932z"/>
	<path fill="#FFFFFF" d="M57.92,96.708V77.39c0-0.96-0.069-1.756-0.236-2.338c-0.17-0.582-0.379-1.031-0.658-1.375
		c-0.273-0.311-0.582-0.584-0.893-0.756l-0.928-0.551h6.397l17.29,22.002V77.044c0-2.75-0.893-4.299-2.681-4.674h8.424l-1.342,0.825
		c-0.31,0.171-0.62,0.554-0.826,1.028c-0.239,0.484-0.516,1.309-0.516,2.511v28.121l-4.711-5.772L60.95,78.388v17.977
		c0,1.174,0.168,2.031,0.513,2.646c0.31,0.588,0.927,1.172,1.823,1.753h-8.082l1.445-1.063c0.312-0.273,0.585-0.58,0.792-1.031
		C57.646,98.257,57.816,97.602,57.92,96.708z"/>
	<path fill="#FFFFFF" d="M0.305,78.972c0-2.784,1.033-4.883,3.061-6.325c2.063-1.442,4.538-2.198,7.428-2.198h1.132
		c1.031,0,2.234,0.104,3.643,0.309c1.41,0.172,2.44,0.447,3.025,0.758v4.88c-0.894-0.688-2.099-1.306-3.539-1.819
		c-1.444-0.521-2.858-0.793-4.163-0.793c-2.338,0-4.022,0.859-4.983,2.612l-0.208,0.448L5.463,77.39v0.445
		c0,0.928,0.479,1.789,1.408,2.646c0.933,0.827,2.165,1.587,3.681,2.271l4.912,2.51c1.443,0.656,2.82,1.58,4.061,2.816
		c1.272,1.203,1.892,2.614,1.892,4.228c0,1.896-0.551,3.544-1.652,4.952c-1.099,1.408-2.611,2.478-4.537,3.269
		c-1.924,0.788-4.058,1.169-6.396,1.169c-2.543,0-5.158-0.443-7.836-1.305L0,94.787c1.338,1.133,2.85,2.027,4.498,2.611
		c1.651,0.618,3.2,0.928,4.678,0.928c1.618,0,3.061-0.31,4.33-0.964c1.276-0.651,1.89-1.377,2.131-1.993
		c0.483-1.168,0.417-2.475-0.241-3.609c-0.309-0.547-0.755-1.064-1.307-1.479c-0.512-0.41-0.997-0.755-1.409-1.031
		c-0.443-0.238-0.89-0.549-1.44-0.824l-4.982-2.504c-1.449-0.623-2.753-1.551-3.922-2.789C1.165,81.927,0.479,80.52,0.305,78.972z"
		/>
	<path fill="#FFFFFF" d="M39.257,101.625c8.762-0.067,15.844-6.668,15.844-14.783c0-8.112-7.082-14.709-15.844-14.779v2.268
		c6.085,0,11.032,5.504,11.032,12.305c0,6.775-4.947,12.314-11.032,12.314V101.625L39.257,101.625z M39.117,101.625
		c-8.871,0-16.02-6.602-16.02-14.783c0-8.178,7.148-14.779,16.02-14.779c0.032,0,0.102,0,0.141,0v2.268
		c-6.087,0-11.037,5.504-11.037,12.305c0,6.775,4.95,12.314,11.037,12.314v2.678C39.218,101.625,39.149,101.625,39.117,101.625
		L39.117,101.625z"/>
	<path fill="#FFFFFF" d="M214.026,80.932c2.369-4.331,5.74-6.738,10.349-8.011c1.513-0.447,3.472-0.655,5.808-0.655
		c2.064,0,4.401,0.274,7.018,0.792v5.021c-1.001-0.857-2.17-1.515-3.479-1.957c-1.303-0.449-2.681-0.69-4.057-0.69
		c-1.547,0-2.816,0.204-3.814,0.582c-1.027,0.381-1.854,0.76-2.508,1.137s-1.373,0.929-2.236,1.613
		c-0.823,0.726-1.58,1.757-2.269,3.163c-1.237,2.478-1.306,6.289-0.343,8.904c1.136,3.096,3.402,5.57,6.462,6.74
		c1.892,0.719,3.817,1.096,5.774,1.096c1.649,0,3.338-0.307,5.156-0.928v-6.392c0-1.308-0.132-2.304-0.445-3.026
		c-0.273-0.688-0.824-1.27-1.617-1.755h6.736c-0.063,0.173-0.135,0.313-0.201,0.451c-0.035,0.14-0.107,0.308-0.137,0.513v2.063
		v8.836c0,0.895,0.102,1.55,0.338,1.992c-1.234,0.343-2.748,0.69-4.57,0.932c-9.073,1.202-20.52-0.416-23.063-10.863
		C212.168,87.427,212.479,83.712,214.026,80.932z"/>
	<path fill="#FFFFFF" d="M185.424,96.708V77.39c0-0.96-0.067-1.756-0.239-2.338c-0.174-0.582-0.377-1.031-0.651-1.375
		c-0.276-0.311-0.55-0.584-0.894-0.756l-0.93-0.551h6.432l17.284,22.002V77.044c0-2.75-0.892-4.299-2.679-4.674h8.387l-1.338,0.825
		c-0.311,0.171-0.587,0.554-0.831,1.028c-0.233,0.484-0.51,1.309-0.51,2.511v28.121l-4.71-5.772L188.45,78.388v17.977
		c0,1.174,0.171,2.031,0.52,2.646c0.307,0.588,0.924,1.172,1.82,1.753h-8.08l1.445-1.063c0.305-0.273,0.582-0.58,0.789-1.031
		C185.149,98.257,185.323,97.602,185.424,96.708z"/>
	<path fill="#FFFFFF" d="M123.306,96.641V77.666c0-1.203-0.103-2.199-0.272-2.988c-0.208-0.758-0.653-1.45-1.41-2.065h8.042
		c-1.303,0.688-1.992,2.235-1.992,4.681v6.494h15.641v-6.809c0-0.964-0.207-1.854-0.615-2.682c-0.416-0.822-0.997-1.375-1.826-1.686
		h8.836l-0.965,1.034c-0.273,0.241-0.512,0.649-0.754,1.167c-0.203,0.516-0.309,1.238-0.309,2.165v19.664
		c0,1.065,0.104,1.892,0.41,2.442c0.243,0.584,0.795,1.099,1.617,1.58h-8.494c1.413-0.549,2.1-1.787,2.1-3.713v-9.83h-15.641v9.521
		c0,0.827,0.174,1.582,0.518,2.235c0.342,0.688,0.826,1.27,1.476,1.787h-8.39c0.621-0.313,1.136-0.859,1.516-1.58
		C123.133,98.291,123.306,97.501,123.306,96.641z"/>
	<path fill="#FFFFFF" d="M166.858,101.763c8.771-0.104,15.852-6.67,15.852-14.782c0-8.146-7.081-14.715-15.852-14.815v2.306
		c6.088,0,11.041,5.502,11.041,12.269c0,6.809-4.953,12.311-11.041,12.311V101.763L166.858,101.763z M166.688,101.763
		c-8.832,0-16.014-6.635-16.014-14.782c0-8.183,7.184-14.815,16.014-14.815c0.035,0,0.105,0,0.17,0v2.306
		c-6.111,0-11.065,5.502-11.065,12.269c0,6.809,4.954,12.311,11.065,12.311v2.715C166.794,101.763,166.724,101.763,166.688,101.763
		L166.688,101.763z"/>
</g>
</svg>
