<?xml version="1.0" encoding="iso-8859-1"?>
<!-- Generator: Adobe Illustrator 16.0.0, SVG Export Plug-In . SVG Version: 6.00 Build 0)  -->
<!DOCTYPE svg PUBLIC "-//W3C//DTD SVG 1.1//EN" "http://www.w3.org/Graphics/SVG/1.1/DTD/svg11.dtd">
<svg version="1.1" id="Layer_1" xmlns="http://www.w3.org/2000/svg" xmlns:xlink="http://www.w3.org/1999/xlink" x="0px" y="0px"
	 width="39.724px" height="39.724px" viewBox="0 0 39.724 39.724" style="enable-background:new 0 0 39.724 39.724;"
	 xml:space="preserve">
<circle style="fill:none;stroke:#DA1C88;stroke-miterlimit:10;" cx="19.861" cy="19.862" r="19.362"/>
<g>
	<path style="fill:#CC3399;" d="M21.597,15.688c0.048-0.145,0.082-0.296,0.1-0.449c0.007-0.056,0.013-0.113,0.013-0.171
		c0.009-0.219,0.017-0.698-0.162-0.861c-0.026-0.023-0.045-0.033-0.065-0.033c-0.04,0-0.074,0.043-0.137,0.082
		c-0.345,0.219-0.743,0.333-1.122,0.477c-0.098,0.036-0.603,0.293-0.902,0.532c-0.189,0.152-0.297,0.297-0.167,0.376
		c0.054,0.034,0.107,0.064,0.16,0.097c0.242,0.144,0.488,0.281,0.735,0.416c0.083,0.043,0.165,0.089,0.247,0.132
		c0.129,0.068,0.271,0.125,0.414,0.146c0.044,0.007,0.087,0.012,0.131,0.009c0.093-0.001,0.184-0.018,0.27-0.06
		c0.116-0.057,0.207-0.153,0.28-0.261c0.037-0.053,0.067-0.108,0.095-0.165C21.529,15.869,21.566,15.781,21.597,15.688"/>
	<path style="fill:#CC3399;" d="M21.838,17.473c0.437-0.138,0.774-0.438,1.135-0.699c0.192-0.139,0.386-0.277,0.586-0.402
		c0.218-0.134,0.445-0.243,0.681-0.333c0.208-0.079,0.423-0.143,0.641-0.193c0.156-0.037,0.204-0.122,0.145-0.258
		c-0.004-0.009-0.007-0.018-0.012-0.027c-0.062-0.12-0.14-0.231-0.208-0.348c-0.003-0.002-0.005-0.008-0.007-0.011
		c-0.148-0.245-0.358-0.434-0.567-0.625c-0.168-0.154-0.504-0.442-0.777-0.44c-0.051,0.001-0.102,0.012-0.146,0.036
		c-0.139,0.073-0.23,0.209-0.315,0.34c-0.044,0.066-0.228,0.366-0.451,0.717c-0.091,0.143-0.188,0.295-0.285,0.443
		c-0.101,0.152-0.2,0.299-0.29,0.43c-0.191,0.277-0.346,0.481-0.394,0.481c-0.002,0-0.005-0.001-0.006-0.001
		c0.358,0.21,0.363,0.532,0.222,0.893C21.817,17.476,21.83,17.477,21.838,17.473"/>
	<path style="fill:#CC3399;" d="M17.962,14.373c-0.027,0.095-0.044,0.18,0.06,0.262c0.172,0.134,0.327,0.289,0.485,0.442
		c0.052,0.052,0.084,0.078,0.116,0.078c0.033,0,0.065-0.028,0.12-0.082c0.172-0.16,0.351-0.313,0.537-0.456
		c0.224-0.17,0.467-0.318,0.688-0.493c0.162-0.126,0.311-0.271,0.459-0.416c0.015-0.014,0.032-0.03,0.046-0.043
		c0.136-0.13,0.263-0.267,0.377-0.416c0.103-0.134,0.195-0.275,0.276-0.425c0.006-0.01,0.011-0.017,0.014-0.026
		c0.039-0.072,0.043-0.159,0.057-0.238c-0.01,0.065-0.369,0.187-0.433,0.211c-0.047,0.019-0.094,0.033-0.141,0.05
		c-0.114,0.039-0.228,0.074-0.344,0.102c-0.254,0.06-0.515,0.09-0.774,0.093c-0.081,0-0.161-0.001-0.242-0.006
		c-0.31-0.019-0.589-0.079-0.854-0.171c-0.345-0.119-0.662-0.294-0.992-0.503c-0.044-0.026-0.097-0.039-0.151-0.039
		c-0.102,0.001-0.204,0.049-0.242,0.129c-0.06,0.125-0.085,0.259-0.051,0.396c0.004,0.017,0.009,0.036,0.013,0.054
		c0.037,0.141,0.075,0.281,0.112,0.421c0.007,0.024,0.012,0.047,0.019,0.071c0.034,0.125,0.065,0.249,0.099,0.372
		c0.03,0.113,0.06,0.226,0.089,0.338c0.005,0.021,0.015,0.046,0.032,0.059c0.139,0.095,0.28,0.188,0.435,0.292
		c0.076-0.249,0.068-0.477,0.014-0.693c-0.038-0.154-0.099-0.304-0.172-0.45c-0.037-0.073-0.078-0.147-0.118-0.22
		c0.095,0.07,0.182,0.143,0.268,0.217c0.042,0.038,0.085,0.074,0.126,0.113c0.101,0.098,0.165,0.212,0.188,0.335
		c0.015,0.081,0.015,0.167-0.003,0.256C18.051,14.119,17.997,14.243,17.962,14.373"/>
	<path style="fill:#CC3399;" d="M18.096,12.196c-0.046,0.048-0.102,0.108-0.169,0.179c0.36,0.122,0.678,0.29,1.063,0.375
		c-0.036-0.105-0.053-0.176-0.082-0.244c-0.08-0.205-0.097-0.403,0.067-0.573c0.075-0.076,0.163-0.147,0.258-0.192
		c0.194-0.093,0.398-0.166,0.613-0.251c-0.038-0.021-0.07-0.044-0.105-0.063c-0.204-0.101-0.43-0.09-0.648-0.104
		c-0.026-0.002-0.054-0.003-0.082-0.003c-0.231,0.003-0.445,0.08-0.595,0.259c-0.189,0.229-0.256,0.292-0.03,0.53
		c0.082,0.083,0.174,0.154,0.262,0.23c-0.003,0.006-0.007,0.013-0.01,0.019C18.463,12.305,18.284,12.25,18.096,12.196"/>
	<path style="fill:#CC3399;" d="M18.989,15.351c0.002,0,0.005-0.001,0.007-0.005c0.03-0.021,0.057-0.049,0.082-0.079
		c0.02-0.024,0.04-0.048,0.06-0.071c0.172-0.179,0.365-0.357,0.582-0.487c0.188-0.114,0.419-0.171,0.626-0.257
		c0.414-0.173,0.818-0.402,1.11-0.75c0.019-0.023,0.039-0.047,0.059-0.071c0.087-0.118,0.159-0.244,0.22-0.375
		c0.065-0.137,0.116-0.28,0.16-0.425c0.015-0.053,0.03-0.103,0.044-0.157c0.046-0.176,0.084-0.361,0.041-0.537
		c-0.034-0.132-0.264-0.394-0.448-0.393c-0.044,0-0.087,0.017-0.123,0.056c-0.115,0.126,0.042,0.406,0.044,0.551
		c0.001,0.162-0.029,0.322-0.081,0.477c-0.039,0.117-0.091,0.229-0.152,0.333c-0.019,0.031-0.04,0.062-0.061,0.092
		c-0.111,0.166-0.247,0.317-0.394,0.456c-0.153,0.141-0.32,0.273-0.487,0.396c-0.274,0.197-0.556,0.382-0.816,0.6
		c-0.191,0.157-0.43,0.33-0.535,0.564c-0.019,0.041-0.033,0.085-0.042,0.132C18.889,15.385,18.974,15.362,18.989,15.351"/>
	<path style="fill:#CC3399;" d="M19.093,12.229c-0.036,0.125,0.008,0.265,0.094,0.362c0.15,0.171,0.393,0.218,0.617,0.216
		c0.046,0,0.09-0.003,0.133-0.007c0.078-0.006,0.159-0.023,0.213-0.08c0.059-0.064,0.063-0.169,0.017-0.243
		c-0.045-0.071-0.131-0.111-0.215-0.111h-0.01c-0.143,0.007-0.22,0.11-0.301,0.21c-0.017-0.049-0.007-0.104,0.018-0.148
		c0.026-0.045,0.064-0.081,0.105-0.113c0.107-0.083,0.237-0.14,0.371-0.165c0.032-0.006,0.063-0.008,0.095-0.008
		c0.064-0.001,0.127,0.011,0.178,0.047c0.06,0.039,0.099,0.107,0.102,0.178c0.003,0.088-0.058,0.178-0.099,0.249v0.001
		c-0.005,0.037,0.017,0.048,0.051,0.048c0.004,0,0.009,0,0.013-0.001c0,0,0,0,0.001-0.001l0,0.001l0.001-0.001
		c0.161-0.048,0.318-0.113,0.475-0.172c0.106-0.039,0.363-0.077,0.27-0.249c-0.018-0.032-0.043-0.059-0.065-0.089
		c-0.046-0.062-0.07-0.136-0.075-0.214c-0.001-0.024,0.01-0.068,0.017-0.112c0.008-0.047,0.012-0.091-0.012-0.109
		c0-0.001,0-0.001-0.001-0.001c-0.036-0.002-0.071-0.002-0.107-0.002c-0.04,0.001-0.082,0.002-0.124,0.002
		c-0.032,0-0.063,0-0.095-0.002c-0.131-0.007-0.258-0.026-0.388-0.029h-0.059c-0.35,0.002-0.762,0.106-1.042,0.309
		C19.19,12.053,19.121,12.133,19.093,12.229"/>
	<path style="fill:#CC3399;" d="M19.427,10.353c-0.217-0.1-0.457-0.145-0.697-0.143c-0.153,0.001-0.307,0.021-0.455,0.06
		c-0.503,0.13-0.943,0.44-1.326,0.796c-0.382,0.354-0.717,0.757-1.092,1.117c-0.141,0.136-0.287,0.267-0.391,0.434
		c-0.057,0.094-0.087,0.196-0.098,0.3c-0.014,0.145,0.013,0.29,0.079,0.419c0.064,0.127,0.161,0.236,0.289,0.311
		c0.017,0.01,0.035,0.019,0.052,0.022c0.158,0.027,0.319,0.049,0.476,0.081c0.006,0.001,0.01,0.002,0.013,0.003
		c0.14,0.03,0.275,0.067,0.412,0.106c0.098,0.03,0.193,0.066,0.303,0.104c-0.001-0.04,0-0.059-0.004-0.077
		c-0.013-0.045-0.026-0.092-0.039-0.139c-0.041-0.149-0.083-0.295-0.126-0.442c-0.038-0.14-0.076-0.281-0.107-0.422
		c-0.024-0.105-0.044-0.212-0.061-0.321c-0.018-0.119-0.027-0.249,0.032-0.355c0.067-0.124,0.213-0.183,0.355-0.185
		c0.012,0,0.027,0.001,0.04,0.002c0.149,0.011,0.27,0.123,0.415,0.127c0.006,0,0.011,0.002,0.014,0.002
		c0.142-0.002,0.277-0.106,0.354-0.217c0.107-0.152,0.155-0.339,0.249-0.501c0.119-0.211,0.317-0.37,0.541-0.456
		c0.107-0.041,0.201-0.057,0.287-0.058c0.144-0.001,0.275,0.035,0.451,0.063c0.032,0.006,0.063,0.008,0.097,0.007
		c0.08,0,0.157-0.017,0.225-0.059C20.119,10.684,19.639,10.451,19.427,10.353"/>
	<path style="fill:#CC3399;" d="M13.91,16.008L13.91,16.008c-0.013,0.033-0.018,0.066-0.018,0.098c0,0.023,0.003,0.045,0.01,0.067
		c0.016,0.047,0.046,0.086,0.081,0.12c0,0.001,0.001,0.001,0.001,0.001c0.02,0.017,0.042,0.032,0.063,0.044
		c0.125,0.075,0.252,0.151,0.377,0.223l0,0.001c0.011,0.005,0.02,0.01,0.03,0.015c0.227,0.107,0.452,0.218,0.668,0.345
		c0.002,0,0.004,0.002,0.009,0.003c0.241,0.132,0.487,0.259,0.666,0.483c0.017,0.021,0.036,0.043,0.053,0.065
		c0,0,0,0.001,0.001,0.001c0.28,0.29,0.509,0.625,0.766,0.938c0.219,0.268,0.5,0.386,0.813,0.382c0.064,0,0.13-0.007,0.195-0.016
		c0.333-0.051,0.657-0.155,0.985-0.237c0-0.01,0-0.02,0-0.03c-0.229-0.114-0.466-0.216-0.687-0.345
		c-0.568-0.333-1.085-0.739-1.527-1.229c-0.199-0.22-0.381-0.456-0.544-0.704c-0.021-0.031-0.04-0.063-0.06-0.095
		c-0.085-0.138-0.165-0.281-0.243-0.422c-0.047-0.087-0.094-0.173-0.143-0.258c-0.037-0.063-0.073-0.135-0.153-0.134
		c-0.011,0-0.025,0.001-0.038,0.004c-0.312,0.08-0.623,0.165-0.901,0.333c-0.019,0.011-0.037,0.021-0.057,0.033
		C14.123,15.779,13.994,15.864,13.91,16.008"/>
	<path style="fill:#CC3399;" d="M23.078,13.261c-0.107,0.158-0.255,0.296-0.364,0.433c-0.001,0.001-0.002,0.003-0.003,0.004
		c-0.219,0.276-0.411,0.579-0.556,0.901c-0.019,0.044-0.038,0.091-0.057,0.137c-0.064,0.163-0.116,0.332-0.16,0.501
		c-0.009,0.03-0.016,0.058-0.023,0.087c-0.025,0.102-0.047,0.205-0.068,0.307c-0.004,0.015-0.009,0.034-0.013,0.053
		c-0.021,0.081-0.054,0.178-0.043,0.248c0.03-0.004,0.056-0.058,0.069-0.084c0.029-0.055,0.057-0.111,0.083-0.166
		c0.058-0.114,0.113-0.229,0.18-0.336c0.023-0.036,0.046-0.074,0.069-0.11c0.202-0.325,0.405-0.649,0.607-0.971
		c0.129-0.202,0.273-0.39,0.423-0.574c0.112-0.14,0.226-0.276,0.335-0.419c0.002-0.002,0.003-0.005,0.005-0.007
		c0.068-0.088,0.133-0.18,0.195-0.275c0.015-0.025,0.031-0.05,0.047-0.078c0.012-0.021,0.025-0.041,0.036-0.064
		c0.13-0.228,0.223-0.472,0.245-0.732c0.037-0.428-0.167-0.898-0.564-1.062c-0.545-0.223-1.149-0.395-1.731-0.479
		c-0.184-0.026-0.395-0.048-0.606-0.047c-0.476,0.003-0.949,0.136-1.095,0.644c-0.01,0.036,0.088,0.057,0.215,0.071
		c0.147,0.015,0.331,0.02,0.439,0.019c0.046,0,0.08-0.001,0.09-0.003c0.263-0.044,0.488-0.179,0.758-0.204
		c0.045-0.004,0.091-0.005,0.136-0.007c0.269-0.002,0.533,0.06,0.757,0.216c0.232,0.161,0.46,0.332,0.688,0.498
		c0.021,0.017,0.036,0.043,0.077,0.092c-0.108-0.027-0.188-0.038-0.258-0.067c-0.213-0.093-0.417-0.212-0.637-0.288
		c-0.136-0.047-0.286-0.028-0.427-0.035c0.01,0.072,0.049,0.103,0.096,0.157c0.054,0.065,0.101,0.136,0.141,0.209
		c0.08,0.148,0.13,0.313,0.144,0.482c0.012,0.177-0.013,0.355-0.074,0.522c-0.002,0.001-0.002,0.004-0.002,0.005
		c-0.057,0.148-0.146,0.28-0.222,0.417c-0.013,0.026-0.029,0.053-0.042,0.08c-0.06,0.121-0.121,0.24-0.171,0.364
		c-0.003,0.009-0.008,0.016-0.011,0.024c-0.094,0.24-0.024,0.468,0.061,0.693c0.016,0.041,0.037,0.08,0.058,0.122
		c0.078-0.18,0.136-0.353,0.245-0.521c0.072-0.111,0.152-0.217,0.23-0.321c0.041-0.055,0.083-0.107,0.122-0.161
		c0.067-0.088,0.133-0.182,0.195-0.276c0.084-0.133,0.156-0.274,0.204-0.422c0.016-0.055,0.033-0.111,0.043-0.169
		c0.021-0.125,0.057-0.274,0.209-0.275h0.008c0.032,0.173,0.062,0.29,0.052,0.438v0.011h0.013v0.013
		c0.001,0.152-0.06,0.286-0.145,0.408h-0.004V13.261z"/>
	<path style="fill:#CC3399;" d="M17.628,15.389c-0.001,0-0.002,0.001-0.002,0.001c-0.026,0-0.153-0.076-0.211-0.111
		c-0.012-0.008-0.023-0.014-0.028-0.016c-0.084-0.041-0.17-0.083-0.256-0.121c-0.172-0.08-0.347-0.149-0.525-0.214
		c-0.342-0.125-0.691-0.212-1.046-0.293c-0.063-0.014-0.199-0.02-0.249-0.066c0.001,0.018,0.001,0.028,0.004,0.037
		c0,0.001,0,0.002,0,0.003c0.099,0.24,0.235,0.464,0.379,0.683c0.059,0.087,0.116,0.172,0.174,0.257
		c0.039,0.06,0.08,0.117,0.122,0.175c0.104,0.144,0.21,0.286,0.321,0.424c0.064,0.08,0.131,0.161,0.199,0.241
		c0.234,0.273,0.482,0.533,0.745,0.779c0.133,0.125,0.27,0.244,0.409,0.361c0.132,0.109,0.272,0.201,0.41,0.3
		c0.29,0.207,0.61,0.359,0.946,0.475c0.202,0.071,0.437,0.105,0.677,0.103c0.634-0.007,1.323-0.264,1.642-0.772
		c0.098-0.155,0.221-0.62,0.03-0.771c-0.022-0.02-0.05-0.033-0.083-0.042c-0.588-0.147-1.123-0.375-1.626-0.655
		c-0.238-0.132-0.47-0.275-0.699-0.428c-0.221-0.146-0.438-0.301-0.654-0.463c-0.287-0.214-0.572-0.437-0.859-0.663
		c-0.145-0.098-0.292-0.19-0.444-0.276c-0.323-0.182-0.669-0.326-1.033-0.403c-0.196-0.041-0.396-0.068-0.595-0.066
		c-0.151,0.002-0.302,0.02-0.451,0.06c-0.124,0.033-0.203,0.067-0.292,0.159c0.216,0.094,0.47,0.135,0.698,0.193
		c0.238,0.062,0.477,0.124,0.713,0.194c0.289,0.087,0.575,0.19,0.844,0.327c0.137,0.069,0.269,0.146,0.393,0.233
		c0.105,0.073,0.184,0.16,0.27,0.25c0.015,0.016,0.031,0.031,0.046,0.048C17.621,15.347,17.662,15.368,17.628,15.389"/>
	<path style="fill:#CC3399;" d="M20.734,20.438c2.313-1.258,4.291-1.896,6.762-1.287c1.249,0.309,1.744,0.957,2.047,1.343
		c-0.104-1.933-1.555-2.178-1.945-2.209c0.761-0.274,1.399-0.7,1.708-1.491c0.525-1.343-0.42-2.705-1.614-2.86
		c-1.07-0.138-2.318,1.063-1.593,2.052c0.261,0.357,1.009,0.533,1.199,0.054c-1.257-0.545-0.051-2.028,1.171-1.449
		c0.845,0.401,0.985,1.682,0.29,2.537c-0.695,0.703-1.65,1.013-2.668,1.184c-0.416,0.031-0.827,0.083-1.23,0.153h0
		c-0.648,0.113-1.3,0.278-1.943,0.493c0.168-0.273,0.34-0.797,0.138-1.721c0,0-0.671,0.523-1.056,0.642
		c-0.384,0.121-0.358,0.055-0.358,0.055s-0.556,0.822-1.623,0.828c0,0,0.46,0.77,1.283,0.854c-2.041,0.992-3.832,2.526-4.825,4.57
		C16.476,24.185,18.806,21.583,20.734,20.438"/>
	<path style="fill:#CC3399;" d="M17.699,25.068c1.842,0.365,3.295,1.535,3.295,1.535c-0.823-0.559-2.923-1.12-3.506-1.27
		c0.013,0.209,0.091,0.483,0.091,0.483s0.126,0.745,1.114,1.323c1.089,0.636,1.911-0.185,3.656,0.817
		c-0.382-2.844-2.229-3.751-3.565-3.519c0.233-0.11,0.479-0.212,0.732-0.302c0.567-0.201,1.368-0.414,2.039-0.482
		c1.501-0.154,4.078,0.622,4.187,2.443c0.032,0.524-0.487,1.093-1.14,1.084c-0.68-0.008-1.319-1.36-0.147-1.361
		c-0.166-0.392-0.536-0.439-0.779-0.34c-0.757,0.313-0.13,1.492,0.307,1.79c1.394,0.949,2.443-0.802,2.043-1.938
		c-0.698-1.989-3.261-2.865-5.467-2.199c-1.498,0.451-2.647,1.345-3.558,2.18c-0.315,0.289-0.665,0.688-0.943,0.689
		c1.678-1.911,4.522-4.605,7.992-5.09c0.7-0.099,1.299-0.043,1.827,0.09c0.596,0.152,0.897,0.178,1.477,0.583
		c-0.925-1.662-3.201-1.956-4.439-1.472c-4.692,1.837-9.146,6.431-9.592,12.532C14.028,29.88,15.182,26.818,17.699,25.068"/>
</g>
</svg>
