<?xml version="1.0" encoding="iso-8859-1"?>
<!-- Generator: Adobe Illustrator 16.0.0, SVG Export Plug-In . SVG Version: 6.00 Build 0)  -->
<!DOCTYPE svg PUBLIC "-//W3C//DTD SVG 1.1//EN" "http://www.w3.org/Graphics/SVG/1.1/DTD/svg11.dtd">
<svg version="1.1" id="Layer_1" xmlns="http://www.w3.org/2000/svg" xmlns:xlink="http://www.w3.org/1999/xlink" x="0px" y="0px"
	 width="39.724px" height="39.724px" viewBox="0 0 39.724 39.724" style="enable-background:new 0 0 39.724 39.724;"
	 xml:space="preserve">
<circle style="fill:none;stroke:#999999;stroke-miterlimit:10;" cx="19.861" cy="19.862" r="19.362"/>
<g>
	<path style="fill:#999999;" d="M33.493,23.318c-0.01,0-0.021,0-0.032-0.002c-0.21-0.017-0.366-0.202-0.349-0.411
		c0.102-1.228-0.877-2.12-0.888-2.13c-0.156-0.141-0.17-0.382-0.03-0.539c0.141-0.157,0.382-0.17,0.539-0.03
		c0.052,0.046,1.272,1.159,1.14,2.761C33.857,23.167,33.69,23.318,33.493,23.318"/>
	<path style="fill:#999999;" d="M12.479,22.714c-0.167,0-0.32-0.111-0.368-0.279c-0.056-0.203,0.062-0.413,0.265-0.47
		c0.566-0.159,0.716-0.707,0.719-0.712c0.049-0.204,0.259-0.328,0.462-0.278c0.205,0.052,0.329,0.259,0.277,0.464
		c-0.01,0.041-0.256,0.981-1.252,1.26C12.548,22.71,12.513,22.714,12.479,22.714"/>
	<path style="fill:#999999;" d="M15.786,19.692c-0.167,0-0.319-0.111-0.367-0.279c-0.057-0.203,0.062-0.413,0.264-0.47
		c0.564-0.158,0.714-0.692,0.72-0.715c0.055-0.202,0.262-0.326,0.466-0.271c0.203,0.051,0.325,0.257,0.274,0.46
		c-0.01,0.04-0.257,0.981-1.253,1.26C15.855,19.688,15.82,19.692,15.786,19.692"/>
	<path style="fill:#999999;" d="M9.696,23.575c-0.073,0-0.147-0.022-0.213-0.066c-0.98-0.661-1.553-2.534-1.333-4.353
		c0.27-2.213,1.608-3.917,3.674-4.677c3.468-1.272,4.981,0.567,6.085,1.91c0.404,0.492,0.753,0.916,1.103,1.077
		c1.161,0.537,1.43,1.668,1.477,2.392c0.435-0.112,0.945-0.102,1.504-0.091c0.651,0.015,1.388,0.03,2.142-0.15
		c0.53-0.127,1.006-0.651,1.51-1.206c0.956-1.052,2.148-2.365,4.36-1.615c3.837,1.299,2.735,5.438,2.724,5.479
		c-0.057,0.204-0.268,0.321-0.47,0.266c-0.204-0.056-0.322-0.267-0.266-0.469c0.039-0.143,0.916-3.487-2.232-4.553
		c-1.74-0.59-2.62,0.38-3.551,1.406c-0.586,0.645-1.138,1.252-1.897,1.434c-0.85,0.204-1.639,0.187-2.334,0.171
		c-0.71-0.015-1.323-0.028-1.643,0.228c-0.121,0.097-0.289,0.11-0.426,0.034c-0.136-0.077-0.21-0.228-0.19-0.383
		c0.009-0.067,0.202-1.683-1.026-2.25c-0.51-0.234-0.929-0.745-1.372-1.287c-1.066-1.293-2.271-2.762-5.234-1.676
		c-2.447,0.897-3.042,2.923-3.178,4.052c-0.205,1.684,0.36,3.194,1.001,3.627c0.175,0.118,0.221,0.355,0.104,0.529
		C9.938,23.514,9.818,23.575,9.696,23.575"/>
	<path style="fill:#999999;" d="M25.138,22.858c-0.017,0-0.034-0.003-0.051-0.005c-0.209-0.028-0.355-0.221-0.327-0.429
		c0.326-2.417,1.073-2.802,1.295-2.863c0.203-0.056,0.413,0.064,0.469,0.268c0.052,0.191-0.051,0.39-0.232,0.458
		c-0.049,0.031-0.526,0.385-0.775,2.24C25.489,22.717,25.325,22.858,25.138,22.858"/>
	<path style="fill:#999999;" d="M32.312,22.699c-0.054,0-0.11-0.013-0.164-0.038l-0.402-0.19c-0.021-0.01-0.042-0.022-0.062-0.037
		c-2.992-2.192-5.946-1.037-6.071-0.988c-0.194,0.079-0.417-0.014-0.497-0.211c-0.078-0.194,0.014-0.416,0.209-0.496
		c0.14-0.057,3.443-1.366,6.78,1.057l0.369,0.175c0.191,0.09,0.272,0.318,0.182,0.51C32.591,22.618,32.455,22.699,32.312,22.699"/>
	<path style="fill:#999999;" d="M18.729,24.656c-0.053,0-0.107-0.011-0.155-0.033l-2.146-0.955
		c-0.129-0.056-0.214-0.178-0.227-0.318c-0.01-0.141,0.055-0.274,0.173-0.352c0.012-0.008,1.238-0.807,1.725-1.611
		c0.609-1.003,1.939-1.422,1.995-1.439c0.205-0.062,0.415,0.051,0.477,0.252c0.062,0.203-0.051,0.415-0.251,0.478
		c-0.024,0.008-1.114,0.357-1.569,1.105c-0.345,0.57-0.958,1.108-1.408,1.458l1.426,0.633c0.493-0.118,1.493-0.494,1.635-1.203
		c0.042-0.206,0.242-0.339,0.45-0.299c0.207,0.042,0.34,0.244,0.299,0.45c-0.287,1.431-2.273,1.813-2.356,1.827
		C18.775,24.654,18.751,24.656,18.729,24.656"/>
	<path style="fill:#999999;" d="M19.783,25.662l-0.704-0.617c0.078-0.085,1.926-2.038,4.963-2.038h9.922v0.903h-9.922
		C21.42,23.91,19.799,25.645,19.783,25.662"/>
	<path style="fill:#999999;" d="M19.768,25.664c-0.015-0.019-1.655-1.754-4.26-1.754h-6.85v-0.903h6.85
		c3.037,0,4.886,1.953,4.963,2.035l-0.704,0.633l0.351-0.328L19.768,25.664z"/>
	<path style="fill:#999999;" d="M10.894,19.302c-0.167,0-0.328-0.035-0.466-0.115c-0.182-0.105-0.245-0.34-0.139-0.522
		c0.106-0.182,0.338-0.245,0.522-0.138c0.074,0.038,0.42-0.01,0.683-0.236c0.159-0.137,0.217-0.274,0.172-0.408
		c-0.143-0.413-0.703-0.292-0.766-0.278c-0.207,0.05-0.41-0.077-0.46-0.281c-0.05-0.203,0.073-0.41,0.277-0.46
		c0.447-0.111,1.373-0.094,1.67,0.771c0.152,0.444-0.007,0.914-0.425,1.258C11.68,19.125,11.269,19.302,10.894,19.302"/>
	<path style="fill:#999999;" d="M16.709,20.968c-0.313,0-0.569,0.255-0.569,0.57c0,0.314,0.255,0.569,0.569,0.569
		s0.569-0.255,0.569-0.569C17.278,21.223,17.023,20.968,16.709,20.968 M16.709,22.87c-0.734,0-1.332-0.598-1.332-1.332
		c0-0.735,0.597-1.332,1.332-1.332c0.736,0,1.332,0.596,1.332,1.332C18.041,22.272,17.444,22.87,16.709,22.87"/>
</g>
</svg>
